# xmcd
# 
# Track frame offsets:
#     150
#     20248
#     37853
#     55352
# 
# Disc length: 1014
# 
# Revision: 0
# Processed by: cddbd v1.5.2PL0 Copyright (c) Steve Scherf et al.
# Submitted via: BonkEnc v1.0.6
# 
DISCID=2e03f404
DTITLE=Oserockets - Escape
DYEAR=2000
DGENRE=Rock
TTITLE0=Escape
TTITLE1=アクセサリー
TTITLE2=恋愛 (Easy Version)
TTITLE3=Escape (Voice Escape Version)
EXTD=YEAR: 2000
EXTT0=
EXTT1=
EXTT2=
EXTT3=
PLAYORDER=
